<svg version="1.1" id="Layer_1" xmlns="http://www.w3.org/2000/svg" xmlns:xlink="http://www.w3.org/1999/xlink" x="0px" y="0px"
	 viewBox="0 0 300.2 181.9" style="enable-background:new 0 0 300.2 181.9;" xml:space="preserve" fill="#b5b5b5">
<style type="text/css">
	.st1{fill:none;}
</style>
<path class="st0" d="M46.1,27.7c-16,10.6-26,25.3-26,41.7c0,9,2.9,17,7.7,24.4L46.1,27.7z M112.7,94h-26l-8.3,30.8
	c8.3,1.9,17.3,2.9,26.6,2.9c5.8,0,11.2-0.3,16.7-1.3L112.7,94z M70.1,122.2L62.4,94H36.8l-2.2,8c9,9,21.1,16,35.6,20.5V122.2z
	 M162.7,94h-26l-2.2,8.3l6.1,19.9c9.9-2.9,18.9-7.4,26.3-12.8L162.7,94z M160.5,86.3l-10.9-38.8L139,86.3H160.5z M182.2,94
	c5.1-7.4,8-15.7,8-24.7c0-17-10.6-32-27.9-42.9L182.2,94z M60.2,86.3L49.6,47.6L39,86.3H60.2z M130,86.3l18.6-67
	c-12.2-4.8-26-7.7-40.4-8L130,86.3z M99.6,47.6L89,86.3h21.5L99.6,47.6z M60.5,20L80,86.3l20.5-75C86.1,12,72.4,14.9,60.5,20
	 M2.2,69.3C2.2,34.4,48.3,5.9,105,5.9c57,0,103.2,28.5,103.2,63.4c0,35.2-46.1,63.8-103.2,63.8C48.3,133.1,2.2,104.6,2.2,69.3"/>
<path class="st0" d="M296.3,8.8C287.7-6,242.2,3.7,185.4,29.6c2.9,2.2,5.8,4.8,8,7.4c43.6-18.6,77.2-24.3,84.3-12.2
	c8,13.8-23.7,48.1-74.7,82l0.6,0.6C265.9,67.1,305.9,25.4,296.3,8.8"/>
<path class="st0" d="M27.8,169c-4.8-8.7,5.4-25,26-44.5c-1.6-0.3-3.2-1-4.8-1.6c-0.3,0-0.3-0.3-0.3-0.3c-1.6-0.6-3.2-1.3-4.8-1.9
	c-24.7,22.7-37.2,42-31.4,52.2c7,11.9,37.5,8,78.2-7l-0.3-0.6C57.6,176.3,33.6,178.6,27.8,169"/>
<rect x="-0.5" y="92.5" class="st1" width="94" height="94"/>
<rect x="280.9" y="-0.2" class="st1" width="94" height="94"/>
</svg>
