<svg version="1.0" xmlns="http://www.w3.org/2000/svg"
 width="233.000000pt" height="232.000000pt" viewBox="0 0 233.000000 232.000000"
 preserveAspectRatio="xMidYMid meet">

<g transform="translate(0.000000,232.000000) scale(0.100000,-0.100000)"
fill="#b5b5b5" stroke="none">
<path d="M978 2294 c-449 -69 -824 -413 -938 -859 -35 -138 -44 -274 -26 -410
43 -328 198 -598 454 -789 207 -156 435 -230 702 -229 325 2 606 123 831 360
93 98 148 178 205 297 305 646 -39 1401 -729 1600 -160 46 -330 57 -499 30z
m373 -69 c222 -38 419 -142 580 -304 224 -225 331 -500 316 -815 -24 -515
-402 -938 -912 -1021 -469 -77 -937 164 -1149 591 -208 418 -124 920 209 1249
161 160 370 267 594 305 79 13 274 11 362 -5z"/>
<path d="M1016 2210 c-250 -40 -433 -134 -611 -314 -147 -149 -222 -279 -278
-480 -19 -71 -22 -104 -21 -266 0 -171 2 -192 28 -275 69 -232 202 -427 385
-566 124 -94 324 -178 481 -203 30 -4 38 -1 54 21 14 18 16 28 8 31 -7 2 -12
17 -12 33 0 24 4 29 25 29 21 0 25 -5 25 -31 0 -31 -15 -69 -33 -81 -22 -14
103 -19 201 -8 249 27 469 130 641 300 152 151 249 328 298 544 22 99 22 325
-1 431 -103 477 -519 825 -1006 840 -69 2 -152 0 -184 -5z m272 -66 c30 -20
30 -77 1 -97 -20 -15 -20 -16 -3 -42 16 -25 18 -25 27 -8 15 27 15 27 32 13
13 -11 13 -15 -2 -40 -15 -26 -15 -30 0 -54 9 -14 17 -28 17 -31 0 -9 -56 -5
-66 5 -6 6 -21 6 -42 -2 -40 -15 -78 -3 -105 34 -18 24 -19 32 -8 67 6 23 20
45 31 51 15 8 18 17 13 44 -10 61 53 97 105 60z m-311 -133 c24 -68 42 -125
40 -127 -2 -2 -14 -5 -26 -6 -19 -3 -26 5 -41 42 -19 48 -34 53 -92 31 l-27
-10 19 -55 c19 -57 16 -66 -24 -66 -18 0 -102 238 -88 252 20 20 45 3 59 -39
l14 -41 45 15 c24 8 46 19 49 23 3 5 -1 26 -10 46 -8 20 -15 40 -15 44 0 9 29
19 44 16 5 -1 29 -58 53 -125z m681 23 c72 -42 89 -73 73 -131 -11 -41 -47
-95 -78 -118 -32 -25 -81 -18 -145 21 l-59 36 22 36 c79 135 115 192 121 192
3 0 33 -16 66 -36z m-973 -66 l27 -21 -22 -17 c-19 -14 -28 -15 -52 -6 -39 15
-62 -1 -66 -46 -2 -29 3 -42 31 -72 54 -56 113 -44 106 22 -4 31 15 62 36 62
17 0 25 -23 25 -70 0 -29 -7 -46 -30 -69 -37 -36 -61 -45 -105 -37 -41 8 -110
82 -124 134 -27 97 95 182 174 120z m1177 -74 c17 -16 16 -19 -29 -73 -26 -31
-54 -65 -62 -75 -11 -13 10 -5 64 22 45 23 85 42 90 42 6 0 16 -9 22 -19 11
-17 5 -28 -42 -86 -30 -37 -55 -69 -55 -72 0 -2 33 14 74 36 84 47 91 48 106
21 10 -18 0 -25 -111 -81 l-122 -61 -20 21 -20 20 44 56 c75 96 75 95 -10 51
l-80 -41 -21 21 -21 20 83 107 c46 58 85 106 87 107 3 0 13 -7 23 -16z m-496
-88 c210 -67 367 -221 442 -435 24 -68 27 -90 26 -206 0 -115 -3 -140 -27
-212 -56 -168 -181 -309 -342 -389 -118 -58 -211 -78 -335 -70 -113 6 -179 24
-281 78 -315 162 -447 555 -294 875 96 204 278 342 503 383 79 15 220 3 308
-24z m-910 -12 c18 -9 36 -24 39 -34 3 -9 35 -32 70 -50 36 -18 65 -36 65 -40
0 -4 -9 -15 -19 -25 -19 -16 -21 -16 -50 4 -37 27 -48 26 -72 -1 -26 -32 -24
-43 14 -69 17 -12 33 -24 35 -25 9 -6 -25 -44 -36 -39 -7 2 -58 37 -112 76
-62 44 -97 75 -93 82 23 39 86 117 100 126 23 13 20 14 59 -5z m1622 -209 c11
-24 9 -26 -93 -74 -140 -66 -141 -67 -156 -39 -6 12 -8 24 -3 26 5 2 59 27
119 57 61 29 113 54 116 54 3 1 11 -10 17 -24z m-1732 -37 c107 -38 138 -63
137 -113 -1 -46 -32 -98 -66 -109 -21 -8 -49 -3 -132 24 -58 19 -105 38 -105
43 0 4 5 17 10 27 10 18 14 18 98 -11 96 -33 128 -31 138 6 9 37 -8 51 -99 81
-45 14 -85 29 -89 33 -9 8 1 51 12 51 4 0 48 -14 96 -32z m1761 -98 c36 -22
60 -82 49 -125 -7 -27 -48 -75 -64 -75 -18 0 -24 52 -7 69 57 64 -41 121 -122
71 -41 -24 -46 -70 -11 -94 31 -22 38 -20 38 8 0 23 23 41 40 31 10 -6 24 -84
17 -91 -6 -6 -115 -33 -134 -34 -7 0 -13 6 -13 14 0 8 6 17 13 20 9 5 9 7 -1
12 -20 9 -42 60 -42 98 0 44 32 82 85 101 57 20 114 18 152 -5z m-1677 -190
l0 -30 -60 0 -60 0 0 -50 0 -49 58 -3 c54 -3 57 -4 60 -30 3 -28 3 -28 -61
-28 -35 0 -98 3 -139 6 -72 6 -75 8 -70 30 4 21 10 24 53 24 l49 0 0 55 0 55
-50 0 c-47 0 -50 2 -50 25 l0 25 135 0 135 0 0 -30z m1644 -80 c55 -6 102 -12
104 -15 2 -2 1 -13 -3 -24 -5 -18 -15 -21 -56 -21 -41 0 -49 -3 -49 -19 0 -10
-3 -32 -6 -49 -6 -29 -5 -30 45 -37 46 -6 51 -9 51 -32 l0 -26 -97 7 c-159 11
-173 15 -173 42 0 23 4 24 60 24 l60 0 0 34 c0 19 3 41 6 50 5 12 -6 16 -55
22 -54 6 -61 9 -61 29 0 30 7 34 43 29 18 -2 77 -9 131 -14z m-1643 -168 c26
-23 33 -38 37 -80 4 -48 2 -54 -28 -82 -56 -52 -165 -67 -213 -29 -30 23 -51
86 -41 124 6 24 56 75 74 75 4 0 11 -12 14 -26 5 -20 2 -32 -13 -46 -23 -21
-26 -40 -11 -69 21 -39 135 -17 160 32 15 28 -11 69 -44 69 -23 0 -36 16 -36
46 0 26 66 17 101 -14z m1535 -137 c82 -32 90 -34 102 -18 6 9 12 23 12 30 0
16 14 17 40 3 18 -9 17 -14 -17 -97 -19 -49 -36 -89 -38 -91 -8 -8 -46 21 -42
31 21 55 23 52 -83 93 -73 27 -99 42 -95 52 3 7 5 18 5 23 0 15 23 10 116 -26z
m-1242 -325 c23 -22 30 -38 29 -66 -1 -44 -17 -63 -40 -48 -10 6 -17 24 -17
44 -1 62 -70 67 -106 7 -38 -61 -16 -111 40 -90 23 8 33 8 47 -3 17 -13 17
-15 -6 -34 -48 -41 -139 -9 -155 55 -7 27 14 88 42 119 55 62 115 68 166 16z
m960 -41 c24 -19 26 -23 13 -36 -13 -13 -20 -13 -50 -2 -29 10 -39 10 -51 0
-22 -18 -20 -57 5 -97 37 -60 95 -55 101 8 3 31 31 59 45 45 4 -5 8 -26 8 -48
0 -51 -36 -88 -91 -96 -34 -4 -45 -1 -74 23 -42 36 -74 105 -65 143 15 70 104
103 159 60z m-784 -56 c67 -39 65 -139 -4 -208 -41 -41 -138 -27 -166 24 -25
47 4 152 51 185 30 21 83 21 119 -1z m947 -40 c-15 -16 -18 -16 -37 2 -19 17
-19 19 -3 37 16 18 17 18 37 -2 19 -19 19 -21 3 -37z m-328 -74 c26 -90 30
-114 19 -120 -26 -17 -43 -8 -107 54 -35 34 -62 55 -59 47 31 -91 39 -133 26
-141 -27 -17 -34 -7 -62 94 -16 56 -31 107 -34 114 -2 7 8 15 23 19 23 6 35
-2 91 -57 35 -35 64 -61 64 -59 0 3 -9 36 -20 74 -21 73 -19 86 9 86 13 0 24
-25 50 -111z m-236 32 c4 -16 9 -71 13 -121 l7 -92 -24 4 c-22 3 -25 9 -31 73
-3 39 -9 91 -13 118 -5 45 -5 47 18 47 19 0 26 -7 30 -29z m-294 -140 c9 -6
11 -18 8 -34 -5 -19 -12 -23 -30 -20 -19 4 -23 10 -19 34 4 30 16 35 41 20z"/>
<path d="M1234 2105 c-9 -23 14 -45 26 -25 5 8 8 19 7 24 -6 17 -27 18 -33 1z"/>
<path d="M1197 2003 c-11 -11 -8 -48 5 -61 15 -15 45 -16 53 -2 7 11 -31 70
-44 70 -4 0 -11 -3 -14 -7z"/>
<path d="M1568 1935 c-21 -35 -38 -68 -38 -72 0 -5 15 -17 34 -26 33 -15 36
-15 60 4 34 27 59 76 52 103 -4 17 -52 57 -68 56 -1 0 -20 -29 -40 -65z"/>
<path d="M1220 1729 l-35 -20 40 -42 c47 -50 83 -118 104 -199 7 -28 6 -38 -4
-42 -18 -6 -37 17 -30 36 3 8 -1 21 -10 28 -8 7 -15 20 -15 29 0 24 -38 81
-54 81 -16 0 -58 48 -52 59 2 3 -2 11 -9 18 -21 19 -39 -10 -31 -50 3 -17 7
-40 8 -51 4 -25 -196 -139 -229 -131 -33 8 -28 -9 12 -39 42 -32 47 -75 15
-131 -11 -19 -16 -35 -12 -35 4 0 -1 -7 -10 -14 -20 -15 -15 -41 23 -120 11
-24 15 -44 10 -50 -5 -7 -3 -16 5 -24 8 -7 14 -10 14 -6 0 3 7 1 16 -7 8 -7
13 -21 11 -31 -3 -10 -2 -18 2 -18 9 0 61 -93 61 -108 0 -6 -8 -13 -17 -15
-14 -4 -13 -5 4 -6 14 -1 28 -12 38 -31 21 -40 33 -31 41 31 6 46 9 50 30 46
27 -5 39 16 18 33 -21 18 -17 59 12 115 48 94 110 122 157 71 36 -39 48 -56
41 -56 -3 0 -2 -6 4 -13 11 -13 -13 -57 -83 -147 -19 -25 -35 -53 -35 -62 0
-20 -18 -44 -77 -107 -24 -24 -43 -48 -43 -53 0 -5 -11 -20 -25 -33 -35 -36
-89 -34 -112 3 -9 15 -37 53 -60 84 -24 31 -43 62 -43 68 0 7 -9 23 -19 36
-11 14 -22 43 -26 65 -4 22 -13 53 -21 67 -8 15 -14 37 -14 48 0 12 -7 41 -15
64 -8 23 -15 52 -15 65 0 12 -11 32 -25 45 -30 28 -31 41 -7 63 22 20 28 21
30 5 1 -21 7 -42 13 -53 10 -16 33 -89 31 -97 -1 -3 5 -8 12 -11 11 -5 13 3
10 31 -2 20 -7 48 -10 62 -14 57 -12 70 17 97 15 15 34 40 40 55 10 24 9 32
-7 49 -10 11 -33 27 -51 36 -35 16 -44 33 -18 33 9 0 18 -7 21 -15 4 -8 10
-12 16 -9 13 8 -11 34 -31 34 -18 -1 -61 -30 -44 -30 21 0 75 -52 63 -60 -7
-4 -22 2 -35 14 -43 39 -52 44 -65 36 -10 -6 -7 -10 12 -15 33 -9 62 -40 52
-56 -5 -9 -2 -10 9 -6 10 4 24 10 33 14 12 4 15 2 12 -8 -2 -7 -23 -19 -46
-26 -36 -10 -47 -9 -73 5 -24 13 -33 14 -36 5 -8 -21 -26 -15 -20 7 3 11 1 18
-4 14 -5 -3 -9 -14 -9 -24 0 -10 -10 -26 -22 -34 l-22 -16 21 0 c13 0 38 9 58
20 46 26 46 8 0 -19 -19 -11 -35 -25 -35 -31 0 -6 -11 -3 -25 6 -21 13 -25 14
-25 2 0 -29 26 -51 53 -46 50 10 74 -32 124 -213 55 -201 80 -252 176 -356 59
-64 88 -61 208 23 106 75 177 139 220 202 20 28 37 42 52 42 26 0 137 54 148
72 14 22 10 36 -11 43 -17 6 -20 12 -15 43 l6 37 -15 -40 c-9 -22 -16 -42 -16
-44 0 -2 -7 2 -15 9 -20 17 -19 40 3 40 15 1 15 2 -2 11 -14 9 -20 8 -26 -1
-5 -9 -10 -6 -15 11 -5 15 -3 25 4 27 6 2 0 13 -15 24 -18 15 -25 28 -21 45 4
19 1 22 -14 18 -11 -4 -36 3 -58 16 -21 12 -45 19 -52 17 -7 -2 7 -14 32 -26
69 -35 101 -68 101 -105 -1 -38 -19 -140 -21 -114 -2 27 -30 78 -62 110 -16
16 -29 25 -29 22 0 -4 -6 -3 -13 3 -7 6 -41 14 -77 17 -41 5 -70 13 -77 23
-16 19 -18 -1 -3 -28 8 -15 4 -25 -17 -50 -14 -17 -34 -61 -44 -97 -21 -75
-27 -84 -39 -62 -5 8 -26 34 -47 58 -55 63 -90 119 -113 177 -19 51 -19 52 1
90 10 21 19 53 19 70 0 30 6 35 102 88 56 31 106 56 111 56 5 0 29 -21 53 -46
l43 -46 68 37 c99 55 98 53 79 117 -8 29 -13 64 -9 76 7 27 -21 72 -45 72 -9
0 -30 16 -45 35 -32 40 -48 43 -97 14z m0 -167 c0 -5 -15 -16 -32 -25 -18 -9
-80 -41 -137 -72 -57 -31 -106 -53 -109 -50 -7 7 -12 4 133 84 132 72 145 77
145 63z m148 -694 c-78 -94 -88 -103 -88 -83 0 10 12 34 27 54 94 125 98 128
101 103 2 -15 -11 -40 -40 -74z"/>
<path d="M1300 1451 c0 -5 5 -13 10 -16 6 -3 10 -2 10 4 0 5 -4 13 -10 16 -5
3 -10 2 -10 -4z"/>
<path d="M715 1392 c-3 -3 8 -11 25 -18 17 -8 30 -21 30 -31 0 -13 3 -14 12
-5 9 9 7 16 -6 31 -18 20 -51 33 -61 23z"/>
<path d="M1261 1249 c-10 -17 -8 -19 19 -19 35 0 36 1 12 21 -17 15 -20 15
-31 -2z"/>
<path d="M860 1041 c0 -23 16 -36 25 -21 3 5 1 10 -5 10 -7 0 -10 7 -6 15 3 8
1 15 -4 15 -6 0 -10 -9 -10 -19z"/>
<path d="M1448 813 c6 -2 18 -2 25 0 6 3 1 5 -13 5 -14 0 -19 -2 -12 -5z"/>
<path d="M1500 806 c0 -9 5 -16 10 -16 6 0 10 4 10 9 0 6 -4 13 -10 16 -5 3
-10 -1 -10 -9z"/>
<path d="M1545 800 c-3 -11 -11 -20 -16 -20 -5 0 -9 -7 -9 -15 0 -25 17 -17
26 13 l7 27 7 -30 c8 -30 8 -29 9 8 1 40 -13 50 -24 17z"/>
<path d="M391 1714 c-27 -34 -26 -38 3 -58 24 -15 26 -15 47 15 17 24 20 36
12 48 -16 26 -39 24 -62 -5z"/>
<path d="M801 395 c-30 -39 -36 -82 -15 -106 36 -39 85 -15 104 52 20 68 -46
108 -89 54z"/>
<path d="M2037 322 c6 -4 13 -23 15 -42 l3 -35 5 41 c5 35 2 40 -15 42 -11 0
-15 -2 -8 -6z"/>
<path d="M2091 283 c1 -37 2 -37 8 -8 l7 30 8 -29 c6 -23 9 -27 17 -15 11 18
12 32 0 24 -5 -3 -12 4 -16 15 -11 33 -25 23 -24 -17z"/>
<path d="M2147 288 c8 -46 13 -48 13 -5 0 21 -4 37 -10 37 -5 0 -7 -14 -3 -32z"/>
</g>
</svg>
