<svg version="1.0" xmlns="http://www.w3.org/2000/svg"
 width="2670.000000pt" height="686.000000pt" viewBox="0 0 2670.000000 686.000000"
 preserveAspectRatio="xMidYMid meet" fill="#b5b5b5">

<g transform="translate(0.000000,686.000000) scale(0.100000,-0.100000)"
fill="#b5b5b5" stroke="none">
<path d="M7780 4324 c-213 -25 -333 -59 -474 -132 -241 -124 -408 -305 -545
-593 -100 -208 -134 -358 -133 -589 0 -383 130 -710 381 -961 144 -143 284
-231 463 -290 186 -60 314 -70 554 -43 362 41 629 211 846 539 107 162 160
289 198 479 20 98 30 128 30 90 0 -10 14 -73 30 -139 54 -220 161 -406 330
-576 114 -115 205 -181 345 -251 187 -94 331 -133 555 -149 209 -15 354 -7
520 29 74 16 166 35 203 42 54 10 67 16 63 29 -3 9 -17 72 -32 139 l-28 124
-31 -5 c-16 -3 -106 -20 -200 -38 -144 -28 -191 -33 -310 -33 -319 2 -582 89
-790 263 -226 188 -347 523 -315 871 23 255 108 440 271 595 176 167 381 257
663 291 181 22 419 5 631 -45 54 -13 78 -15 80 -7 15 49 58 226 59 246 1 23
-6 27 -74 46 -114 33 -249 54 -420 64 -398 26 -772 -72 -1042 -272 -260 -193
-445 -486 -498 -786 -7 -39 -15 -70 -18 -67 -3 3 -15 53 -27 112 -106 510
-478 898 -952 992 -99 20 -269 32 -333 25z m340 -339 c229 -73 385 -206 497
-421 79 -154 114 -279 133 -482 12 -125 3 -209 -36 -375 -44 -185 -109 -314
-218 -434 -90 -100 -250 -200 -377 -237 -84 -25 -217 -46 -285 -46 -138 0
-373 87 -517 190 -60 43 -147 150 -205 252 -49 86 -92 203 -119 327 -34 152
-38 373 -9 496 53 228 155 415 302 554 88 84 150 121 270 161 134 45 165 49
329 46 131 -3 161 -7 235 -31z"/>
<path d="M19470 4323 c-321 -31 -556 -138 -765 -348 -113 -113 -181 -211 -254
-369 l-58 -125 -11 105 c-22 200 -90 344 -227 480 -66 66 -99 90 -176 128
-189 93 -159 90 -936 94 l-683 3 0 -1275 0 -1276 175 0 175 0 0 499 0 499 508
4 c485 4 510 5 587 26 215 60 368 175 481 363 l45 74 -7 -60 c-14 -138 36
-490 92 -647 150 -417 504 -714 934 -784 113 -18 308 -18 409 1 95 18 259 74
345 117 337 168 569 480 658 886 32 141 32 434 0 577 -60 278 -171 484 -367
681 -206 208 -435 316 -730 344 -108 10 -126 10 -195 3z m330 -332 c41 -12
115 -43 165 -69 73 -38 107 -63 185 -142 174 -175 262 -382 291 -684 19 -210
-21 -425 -116 -622 -45 -93 -68 -126 -136 -198 -141 -149 -280 -224 -495 -267
-133 -26 -227 -22 -359 16 -175 50 -286 116 -401 238 -198 208 -308 546 -276
850 33 314 170 584 375 741 97 73 175 111 293 141 89 22 114 24 249 21 116 -3
167 -9 225 -25z m-2122 -5 c86 -22 131 -46 200 -111 105 -97 170 -259 159
-395 -17 -201 -120 -348 -297 -422 -54 -23 -60 -23 -542 -26 l-488 -3 0 485 0
485 83 4 c45 2 249 3 452 2 302 -2 382 -6 433 -19z"/>
<path d="M21515 4309 c-309 -42 -526 -166 -614 -352 -37 -79 -51 -148 -51
-250 1 -235 89 -392 299 -532 145 -96 273 -154 711 -320 69 -26 193 -80 275
-120 209 -101 276 -168 305 -309 20 -100 -6 -173 -94 -261 -126 -126 -348
-184 -656 -171 -252 10 -435 44 -709 130 -80 25 -145 45 -146 43 -7 -11 -57
-219 -58 -242 -2 -30 -2 -30 128 -72 158 -52 495 -128 627 -143 138 -14 397
-12 508 5 369 56 617 222 707 476 35 97 43 268 19 374 -53 225 -264 375 -866
615 -302 120 -536 233 -603 291 -87 75 -122 190 -96 318 13 70 65 138 129 171
87 44 420 87 583 75 197 -14 653 -85 721 -111 9 -3 17 18 26 68 7 40 21 99 31
132 11 32 19 62 19 66 0 15 -278 72 -515 105 -131 19 -578 28 -680 14z"/>
<path d="M13050 3757 l0 -544 -272 -6 c-149 -4 -446 -7 -660 -7 l-388 0 0 545
0 545 -175 0 -175 0 0 -1275 0 -1275 175 0 175 0 0 575 0 575 660 0 660 0 0
-577 0 -578 185 3 185 3 0 1279 0 1280 -185 0 -185 0 0 -543z"/>
<path d="M13730 3020 l0 -1280 885 0 885 0 0 150 0 150 -705 0 -705 0 0 430 0
430 660 0 660 0 0 155 0 155 -660 0 -660 0 0 385 0 385 705 0 705 0 0 160 0
160 -885 0 -885 0 0 -1280z"/>
<path d="M10 3015 l0 -1275 962 2 962 3 127 320 127 320 573 0 572 0 59 -150
c32 -82 81 -202 107 -265 27 -63 57 -141 67 -172 l18 -58 172 0 173 0 -13 38
c-25 66 -232 573 -296 722 -34 80 -109 267 -166 415 -57 149 -204 519 -327
822 l-222 553 -145 0 -146 0 -94 -237 c-51 -131 -139 -350 -196 -488 -253
-619 -506 -1250 -544 -1360 -23 -65 -59 -151 -79 -190 l-36 -70 -3 48 -3 47
-650 0 -649 0 0 1125 0 1125 -175 0 -175 0 0 -1275z m2830 690 c22 -60 91
-245 155 -410 126 -324 223 -587 232 -622 l5 -23 -471 0 c-384 0 -471 2 -471
13 0 21 42 140 95 267 50 122 195 505 195 516 0 7 169 433 177 447 7 12 37
-56 83 -188z"/>
<path d="M4510 3016 l0 -1276 175 0 175 0 0 520 0 520 389 0 389 0 70 -103
c87 -127 289 -401 447 -607 66 -85 147 -194 179 -243 l60 -87 204 0 204 0 -18
27 c-10 16 -58 82 -108 148 -198 263 -415 554 -472 635 -33 47 -88 124 -122
172 -34 47 -62 91 -62 96 0 6 26 20 58 31 204 73 351 227 429 446 26 75 28 89
27 235 -2 137 -5 164 -28 235 -33 105 -86 193 -165 277 -105 113 -219 179
-376 220 -77 21 -108 22 -767 25 l-688 4 0 -1275z m1213 984 c169 -17 249 -51
340 -145 59 -63 103 -151 123 -250 15 -74 15 -85 -1 -160 -35 -167 -114 -274
-254 -343 l-75 -37 -498 -3 -498 -3 0 470 0 470 88 4 c204 7 685 6 775 -3z"/>
<path d="M23656 4268 c-8 -13 -29 -63 -47 -113 -18 -49 -98 -250 -177 -445
-79 -195 -224 -557 -322 -805 -213 -535 -363 -906 -418 -1030 -21 -49 -42
-100 -46 -113 l-7 -22 172 2 172 3 127 320 128 320 573 0 572 0 77 -195 c43
-107 93 -233 113 -280 19 -47 41 -104 48 -127 l12 -43 174 0 173 0 -17 42 c-9
24 -68 169 -131 323 -133 326 -239 590 -547 1360 -123 308 -248 619 -277 692
l-53 132 -142 1 c-137 0 -143 -1 -157 -22z m177 -414 c5 -16 41 -108 79 -204
38 -96 114 -296 169 -445 55 -148 122 -331 149 -405 28 -74 50 -138 50 -142 0
-5 -211 -8 -470 -8 -369 0 -470 3 -470 13 0 6 21 66 46 132 25 66 124 327 219
580 95 253 178 473 184 488 13 35 32 31 44 -9z"/>
<path d="M24447 4203 c31 -49 91 -140 133 -203 42 -63 135 -207 205 -320 172
-276 532 -837 561 -877 l24 -32 0 -515 0 -516 175 0 175 0 0 516 0 516 187
292 c103 160 315 491 471 736 157 245 292 455 300 468 l14 22 -180 0 -180 0
-388 -597 c-213 -329 -390 -602 -394 -606 -7 -8 -175 240 -483 714 -87 134
-186 285 -220 335 -34 50 -70 105 -79 122 l-17 32 -180 0 -181 0 57 -87z"/>
<path d="M7148 1284 c-167 -40 -296 -172 -343 -349 -19 -76 -19 -224 1 -300
35 -135 131 -258 247 -315 264 -130 575 20 652 315 19 76 19 214 0 289 -38
145 -136 274 -247 326 -107 50 -203 61 -310 34z m239 -86 c249 -91 337 -441
173 -686 -102 -153 -308 -214 -459 -137 -153 77 -241 255 -228 461 12 195 149
360 319 384 67 9 129 2 195 -22z"/>
<path d="M10470 1285 c-91 -25 -154 -62 -212 -123 -197 -206 -197 -548 0 -754
98 -103 248 -153 388 -130 167 28 321 165 376 335 30 90 30 248 1 342 -38 122
-127 236 -220 283 -100 51 -243 71 -333 47z m185 -70 c214 -35 362 -301 300
-539 -37 -143 -108 -236 -221 -292 -147 -73 -277 -55 -394 53 -73 67 -115 147
-137 262 -31 155 8 301 108 406 28 30 76 67 105 81 52 26 139 44 179 38 11 -2
38 -6 60 -9z"/>
<path d="M18610 1282 c-85 -22 -143 -58 -208 -126 -191 -202 -185 -554 12
-752 72 -71 145 -109 245 -125 142 -24 264 17 382 128 133 125 185 305 144
497 -44 209 -191 355 -385 386 -86 13 -113 12 -190 -8z m257 -84 c108 -40 202
-157 238 -295 49 -187 -33 -408 -185 -502 -236 -145 -503 -11 -565 284 -19 89
-19 134 0 214 60 254 282 384 512 299z"/>
<path d="M20240 1284 c-30 -8 -82 -28 -115 -44 -192 -93 -296 -352 -239 -597
57 -245 280 -402 519 -364 197 32 341 177 385 389 15 75 19 83 25 57 27 -115
89 -237 147 -291 56 -52 149 -108 218 -131 68 -22 251 -25 383 -4 l87 13 0
209 0 209 -35 0 -35 0 0 -179 c0 -162 -2 -180 -17 -185 -43 -13 -233 -23 -292
-15 -223 31 -400 254 -375 473 29 263 199 401 486 398 54 -1 125 -6 159 -12
33 -6 62 -10 64 -8 1 2 5 17 8 35 l6 31 -65 12 c-37 6 -116 11 -178 11 -308
-1 -491 -132 -552 -396 -14 -60 -19 -73 -22 -50 -20 177 -126 341 -264 405
-106 50 -198 60 -298 34z m227 -86 c151 -55 255 -219 257 -403 2 -263 -191
-469 -423 -453 -213 16 -365 231 -348 493 12 197 148 360 319 385 67 9 129 2
195 -22z"/>
<path d="M22329 1282 c-115 -30 -229 -123 -284 -232 -30 -59 -65 -203 -65
-270 0 -132 60 -282 145 -366 58 -56 193 -130 250 -136 l30 -3 3 -132 3 -133
39 0 40 0 0 130 0 130 28 6 c132 30 184 57 260 139 121 130 165 296 126 482
-45 217 -184 363 -374 393 -87 13 -123 12 -201 -8z m256 -83 c150 -57 241
-194 252 -379 16 -266 -163 -480 -403 -480 -122 0 -244 83 -308 211 -45 90
-59 161 -54 278 3 82 8 106 35 164 91 194 286 278 478 206z"/>
<path d="M4480 785 l0 -495 348 0 348 0 55 137 55 138 247 3 246 2 16 -30 c8
-16 33 -77 54 -136 22 -58 41 -108 44 -110 3 -3 22 -4 44 -2 l38 3 -205 492
c-196 470 -206 493 -231 493 -35 0 -50 -20 -91 -125 -58 -146 -232 -570 -289
-700 -53 -123 -69 -151 -69 -123 0 24 -42 28 -291 28 l-229 0 0 460 0 460 -45
0 -45 0 0 -495z m1145 182 c29 -85 69 -188 122 -314 4 -10 -42 -13 -212 -13
l-216 0 6 23 c4 12 25 65 47 117 22 52 65 157 94 233 30 77 57 144 60 149 10
16 62 -86 99 -195z"/>
<path d="M6020 785 l0 -497 258 4 c303 5 337 12 414 89 118 118 96 315 -44
398 l-57 33 47 32 c65 44 97 109 96 196 -1 104 -42 167 -139 212 -47 22 -63
23 -312 26 l-263 3 0 -496z m498 410 c63 -19 91 -41 113 -88 48 -107 -3 -219
-116 -253 -56 -17 -391 -22 -407 -6 -5 5 -7 87 -6 183 l3 174 85 6 c111 8 274
0 328 -16z m-70 -425 c126 -13 176 -40 213 -112 35 -69 22 -173 -30 -232 -50
-57 -222 -85 -421 -69 l-105 8 0 200 0 200 80 6 c134 9 166 9 263 -1z"/>
<path d="M7820 786 l0 -496 45 0 45 0 0 215 0 215 180 0 180 0 44 -67 c25 -38
75 -104 111 -148 36 -44 86 -111 111 -148 l45 -68 81 3 81 3 53 135 53 135
248 3 248 2 54 -140 54 -140 43 0 43 0 -69 168 c-322 784 -337 817 -361 820
-13 2 -31 -3 -41 -10 -9 -7 -64 -134 -124 -283 -59 -148 -127 -315 -152 -370
-24 -55 -62 -144 -85 -197 -23 -54 -45 -98 -49 -98 -12 0 -298 389 -298 405 0
2 27 18 61 36 101 54 149 128 149 231 0 100 -62 204 -151 253 l-54 30 -272 3
-273 3 0 -495z m545 405 c156 -72 169 -295 22 -374 -39 -20 -58 -22 -259 -25
l-218 -4 0 211 0 211 208 0 c180 0 212 -3 247 -19z m844 -288 c56 -139 101
-255 101 -258 0 -3 -97 -5 -216 -5 -169 0 -215 3 -211 13 7 16 198 488 204
505 3 7 9 10 14 5 4 -4 53 -121 108 -260z"/>
<path d="M9390 1245 l0 -35 175 0 175 0 0 -460 0 -460 40 0 40 0 0 460 0 460
175 0 175 0 0 35 0 35 -390 0 -390 0 0 -35z"/>
<path d="M11160 785 l0 -495 40 0 40 0 0 495 0 495 -40 0 -40 0 0 -495z"/>
<path d="M11420 786 l0 -496 40 0 40 0 0 215 0 215 185 0 185 0 27 -48 c16
-27 84 -124 153 -215 l124 -167 43 0 c24 0 43 3 43 7 0 4 -39 58 -87 120 -90
117 -198 265 -214 294 -7 14 3 22 55 48 67 33 105 73 133 138 22 53 14 184
-15 239 -26 51 -93 110 -141 126 -22 7 -137 13 -303 15 l-268 4 0 -495z m523
408 c164 -58 185 -289 34 -375 -41 -23 -48 -24 -257 -24 l-215 0 -3 207 -2
207 87 4 c137 6 311 -3 356 -19z"/>
<path d="M12330 785 l0 -495 330 0 330 0 0 35 0 35 -287 2 -288 3 0 200 0 200
268 3 267 2 0 35 0 35 -267 2 -268 3 -3 183 -2 182 290 0 290 0 0 35 0 35
-330 0 -330 0 0 -495z"/>
<path d="M13290 783 l0 -496 148 6 c256 10 383 52 496 164 146 145 177 353 80
544 -42 84 -127 165 -218 209 -109 52 -204 70 -371 70 l-135 0 0 -497z m354
407 c153 -39 245 -109 307 -235 51 -104 54 -246 8 -337 -12 -23 -41 -63 -66
-89 -100 -106 -222 -158 -400 -166 l-113 -6 0 427 0 426 93 0 c61 0 121 -7
171 -20z"/>
<path d="M14150 785 l0 -495 330 0 330 0 0 35 0 35 -285 0 -285 0 0 205 0 205
265 0 265 0 0 35 0 35 -265 0 -265 0 0 185 0 185 285 0 285 0 0 35 0 35 -330
0 -330 0 0 -495z"/>
<path d="M14930 786 l0 -496 45 0 45 0 0 215 0 215 180 0 180 0 44 -67 c25
-38 75 -104 111 -148 36 -44 86 -110 111 -147 44 -67 46 -68 89 -68 25 0 45 2
45 5 0 3 -70 99 -155 214 -85 115 -155 211 -155 214 0 3 27 20 61 38 101 54
149 128 149 231 0 100 -62 204 -151 253 l-54 30 -272 3 -273 3 0 -495z m525
411 c23 -7 58 -29 80 -52 85 -85 86 -207 1 -291 -56 -56 -104 -65 -331 -62
l-180 3 -3 207 -2 207 77 4 c116 6 312 -3 358 -16z"/>
<path d="M15840 785 l0 -495 45 0 45 0 1 413 1 412 171 -347 c94 -192 175
-348 179 -348 43 0 58 24 224 357 l169 338 3 -412 2 -413 40 0 40 0 0 495 0
495 -34 0 c-19 0 -41 -6 -49 -14 -7 -8 -94 -174 -192 -370 -98 -196 -182 -353
-186 -349 -5 5 -89 171 -189 371 l-181 362 -44 0 -45 0 0 -495z"/>
<path d="M17224 1273 c-16 -11 -47 -76 -77 -158 -14 -39 -62 -156 -107 -260
-45 -105 -104 -246 -132 -315 -43 -109 -78 -196 -95 -238 -4 -8 7 -12 36 -12
34 0 43 4 50 23 5 12 30 75 56 140 l47 117 248 0 247 0 54 -140 54 -140 42 0
42 0 -13 38 c-8 20 -43 102 -78 182 -53 119 -222 528 -297 720 -13 34 -23 46
-42 48 -13 1 -29 -1 -35 -5z m136 -372 c56 -139 99 -255 97 -257 -2 -3 -98 -3
-214 -2 l-209 3 51 140 c66 180 157 387 166 377 4 -4 53 -121 109 -261z"/>
<path d="M17550 1245 l0 -35 170 0 170 0 0 -460 0 -460 40 0 40 0 0 460 0 460
175 0 175 0 0 35 0 35 -385 0 -385 0 0 -35z"/>
<path d="M19300 785 l0 -495 305 0 305 0 0 35 0 35 -262 2 -263 3 -3 458 -2
457 -40 0 -40 0 0 -495z"/>
<path d="M21800 785 l0 -495 40 0 40 0 0 495 0 495 -40 0 -40 0 0 -495z"/>
<path d="M23000 963 c0 -338 6 -397 51 -486 65 -130 233 -219 387 -203 188 19
305 132 343 330 5 27 9 190 9 362 l0 314 -44 0 -44 0 5 -262 c9 -481 -14 -566
-176 -645 -109 -54 -280 -24 -367 63 -75 74 -79 102 -79 502 l0 342 -42 0 -43
0 0 -317z"/>
<path d="M23940 785 l0 -495 330 0 330 0 0 35 0 35 -285 0 -285 0 0 205 0 205
265 0 265 0 0 35 0 35 -265 0 -265 0 0 185 0 185 285 0 285 0 0 35 0 35 -330
0 -330 0 0 -495z"/>
</g>
</svg>
