<svg version="1.0" xmlns="http://www.w3.org/2000/svg"
 width="6400.000000pt" height="1152.000000pt" viewBox="0 0 6400.000000 1152.000000"
 preserveAspectRatio="xMidYMid meet" fill="#b5b5b5">

<g transform="translate(0.000000,1152.000000) scale(0.100000,-0.100000)"
fill="#b5b5b5" stroke="none">
<path d="M15350 11513 c-1220 -53 -2392 -418 -3344 -1040 -897 -586 -1611
-1409 -2053 -2368 -282 -610 -447 -1254 -504 -1960 -16 -196 -16 -702 0 -880
130 -1505 786 -2785 1921 -3752 878 -748 2004 -1246 3240 -1432 597 -90 1248
-104 1865 -40 1767 183 3310 985 4312 2241 684 857 1075 1868 1163 3007 14
193 12 665 -5 876 -96 1196 -535 2268 -1311 3200 -146 175 -504 532 -691 687
-1056 880 -2367 1377 -3843 1458 -166 9 -579 11 -750 3z m790 -1158 c900 -74
1679 -360 2405 -883 626 -451 1172 -1122 1491 -1833 246 -548 391 -1143 410
-1689 3 -80 7 -163 9 -185 5 -68 -13 -415 -30 -556 -118 -970 -570 -1881
-1295 -2609 -402 -405 -811 -698 -1325 -950 -512 -252 -1000 -400 -1554 -470
-715 -90 -1453 -14 -2135 220 -1186 407 -2157 1256 -2703 2361 -455 919 -572
1937 -343 2969 28 129 54 219 107 385 434 1343 1454 2415 2785 2929 343 132
762 237 1143 286 307 40 733 50 1035 25z"/>
<path d="M38524 10833 c-302 -339 -550 -620 -552 -624 -2 -5 14 -2 35 5 21 8
801 287 1733 621 932 333 1697 608 1699 611 2 2 -529 4 -1181 4 l-1185 0 -549
-617z"/>
<path d="M160 5381 c0 -2519 3 -4586 6 -4595 6 -15 381 -16 4155 -16 l4149 0
0 505 0 505 -3510 0 -3510 0 0 4090 0 4090 -645 0 -645 0 0 -4579z"/>
<path d="M6758 8352 c-351 -884 -640 -1615 -644 -1625 -6 -16 19 -17 471 -15
l477 3 75 140 c41 77 135 253 208 390 73 138 188 354 255 480 67 127 219 412
337 635 191 359 451 848 710 1335 47 88 98 184 114 213 l29 52 -697 0 -698 0
-637 -1608z"/>
<path d="M23632 5368 l3 -4593 658 -3 c361 -1 658 1 659 5 0 5 2 872 3 1928
l2 1920 1884 2 1884 2 1386 -1927 1386 -1927 832 -3 c457 -1 831 0 831 3 0 3
-89 121 -197 263 -108 141 -238 311 -288 377 -516 676 -1381 1846 -1796 2430
-157 220 -501 720 -517 751 -10 19 -4 22 130 63 407 121 823 324 1114 545 621
469 982 1139 1034 1919 9 131 7 175 -10 322 -78 686 -328 1243 -745 1661 -232
233 -476 401 -778 537 -339 152 -652 233 -1162 299 -66 9 -907 13 -3203 15
l-3112 3 2 -4592z m5896 3502 c602 -32 1032 -206 1352 -547 171 -184 296 -415
352 -653 28 -124 36 -408 14 -556 -82 -556 -362 -961 -821 -1185 -173 -84
-382 -142 -666 -186 -105 -16 -292 -17 -2459 -20 l-2345 -3 2 1577 c0 868 2
1579 2 1581 3 8 4406 0 4569 -8z"/>
<path d="M34802 5368 l3 -4593 4108 -3 4107 -2 0 505 0 505 -3405 0 -3405 0 0
1605 0 1605 2560 0 2560 0 -2 508 -3 507 -2557 3 -2558 2 0 1475 0 1475 3405
0 3405 0 0 500 0 500 -4110 0 -4110 0 2 -4592z"/>
<path d="M48114 9513 c-124 -247 -264 -520 -309 -608 -45 -88 -169 -331 -275
-540 -106 -209 -252 -497 -325 -640 -73 -143 -541 -1063 -1040 -2045 -1264
-2487 -1776 -3494 -1925 -3785 -355 -695 -560 -1103 -560 -1114 0 -8 194 -10
786 -9 l786 3 596 1187 597 1188 2803 -3 2803 -2 98 -190 c97 -190 409 -805
849 -1675 129 -256 241 -475 249 -487 l13 -23 774 0 c425 0 775 2 778 5 3 3
-68 148 -157 323 -89 174 -266 524 -394 777 -129 253 -250 492 -271 530 -21
39 -153 300 -295 580 -142 281 -265 524 -275 540 -9 17 -140 273 -290 570
-150 297 -276 545 -280 550 -4 6 -143 280 -310 610 -167 330 -306 605 -310
610 -4 6 -132 258 -285 560 -153 303 -281 555 -285 560 -4 6 -132 258 -285
560 -153 303 -281 555 -285 560 -4 6 -128 249 -275 540 -147 292 -271 535
-275 540 -4 6 -94 182 -201 393 l-193 382 -902 0 -903 0 -227 -447z m1218
-1006 c48 -94 177 -347 286 -562 109 -214 314 -619 456 -900 142 -280 298
-586 346 -680 48 -93 199 -390 335 -660 136 -269 276 -544 310 -610 56 -108
385 -759 393 -777 2 -5 -991 -8 -2207 -8 l-2211 0 228 453 c126 248 620 1232
1097 2185 478 952 871 1732 874 1732 3 0 45 -78 93 -173z"/>
<path d="M55530 5365 l0 -4595 4153 2 4152 3 3 502 2 503 -3515 0 -3515 0 0
4090 0 4090 -640 0 -640 0 0 -4595z"/>
</g>
</svg>
