<svg class="landing-logo" viewBox="0 0 328 49" xmlns="http://www.w3.org/2000/svg" xmlns:xlink="http://www.w3.org/1999/xlink" fill="#b5b5b5">
    <path fill-rule="evenodd" d="M302.907,48.113 L285.305,48.113 L285.305,0.767 L303.17,0.767 C318.214,0.767 327.999,10.685 327.999,24.385 C327.999,37.756 318.378,48.113 302.907,48.113 ZM302.907,8.384 L293.614,8.384 L293.614,40.550 L302.907,40.550 C312.911,40.550 319.307,34.29 319.307,24.549 C319.307,15.178 313.130,8.384 302.907,8.384 ZM274.645,48.113 L262.946,29.810 L252.559,29.810 L252.559,48.58 L244.304,48.58 L244.304,0.712 L265.187,0.712 C276.175,0.712 282.134,5.918 282.134,14.740 C282.134,22.796 277.597,26.906 271.802,28.276 L284.375,48.3 L274.645,48.113 ZM273.606,15.124 C273.660,9.918 269.725,8.384 263.547,8.384 L252.559,8.384 L252.559,22.302 L263.602,22.302 C269.998,22.302 273.606,19.562 273.606,15.124 ZM216.479,48.935 C201.992,48.935 191.879,38.139 191.879,24.494 C191.879,10.904 202.102,0.0 216.644,0.0 C231.130,0.0 241.298,10.794 241.298,24.440 C241.244,38.30 230.966,48.935 216.479,48.935 ZM216.479,7.616 C207.131,7.616 200.571,15.14 200.571,24.440 C200.571,33.865 207.186,41.318 216.644,41.318 C225.991,41.318 232.551,33.920 232.551,24.494 C232.497,15.69 225.882,7.616 216.479,7.616 ZM164.272,22.302 L189.37,22.302 L189.37,29.864 L164.272,29.864 L164.272,48.113 L155.963,48.113 L155.963,0.767 L191.114,0.767 L191.114,8.384 L164.272,8.384 L164.272,22.302 ZM129.122,14.138 L116.275,48.113 L111.847,48.113 L99.55,14.192 L99.55,48.113 L90.855,48.113 L90.855,0.821 L102.663,0.821 L114.198,31.234 L125.678,0.821 L137.431,0.821 L137.431,48.113 L129.122,48.113 L129.122,14.138 ZM63.30,48.935 C48.543,48.935 38.375,38.139 38.375,24.494 C38.375,10.904 48.598,0.0 63.139,0.0 C77.626,0.0 87.794,10.794 87.794,24.440 C87.794,38.30 77.571,48.935 63.30,48.935 ZM63.30,7.616 C53.682,7.616 47.177,15.14 47.177,24.440 C47.177,33.865 53.791,41.318 63.139,41.318 C72.487,41.318 79.47,33.920 79.47,24.494 C79.47,15.69 72.433,7.616 63.30,7.616 ZM24.435,48.113 L16.71,48.113 L16.71,8.384 L0.0,8.384 L0.0,0.767 L40.343,0.767 L40.343,8.384 L24.435,8.384 L24.435,48.113 Z"></path>
</svg>