<?xml version="1.0" standalone="no"?>
<!DOCTYPE svg PUBLIC "-//W3C//DTD SVG 20010904//EN"
 "http://www.w3.org/TR/2001/REC-SVG-20010904/DTD/svg10.dtd">
<svg version="1.0" xmlns="http://www.w3.org/2000/svg"
 width="666.000000pt" height="666.000000pt" viewBox="0 0 666.000000 666.000000"
 preserveAspectRatio="xMidYMid meet">
<metadata>
Created by potrace 1.14, written by Peter Selinger 2001-2017
</metadata>
<g transform="translate(0.000000,666.000000) scale(0.100000,-0.100000)"
fill="#000000" stroke="none">
<path d="M3118 5825 c-2 -2 -28 -6 -58 -10 -30 -4 -70 -9 -89 -11 -292 -37
-647 -163 -921 -327 -91 -55 -244 -160 -271 -186 -9 -9 -36 -31 -60 -50 -68
-53 -299 -291 -349 -360 -25 -34 -51 -68 -59 -77 -37 -42 -141 -209 -199 -320
-128 -249 -229 -565 -257 -808 -2 -21 -6 -40 -7 -41 -2 -2 -21 -5 -43 -9 -118
-17 -231 -38 -320 -61 -55 -14 -109 -27 -120 -30 -47 -11 -176 -60 -251 -95
-72 -34 -83 -42 -97 -78 -26 -65 -3 -128 57 -159 32 -17 90 -19 110 -5 42 31
314 121 416 138 14 2 36 7 50 10 47 11 65 14 115 20 28 4 53 8 57 11 5 2 8
-35 9 -84 1 -87 4 -146 12 -213 2 -19 8 -64 12 -100 4 -36 9 -74 12 -85 2 -11
6 -31 9 -45 24 -121 93 -354 129 -437 13 -29 22 -53 20 -53 -4 0 128 -264 148
-295 145 -230 230 -339 397 -505 129 -129 239 -221 370 -306 41 -27 77 -51 80
-54 22 -22 380 -199 414 -204 6 -1 16 -4 21 -7 12 -8 153 -53 215 -70 234 -64
390 -84 655 -84 212 0 297 7 485 40 21 4 194 47 240 59 25 7 163 56 185 65 11
5 36 15 55 22 50 18 321 157 341 175 8 8 18 14 22 14 10 0 142 92 229 160 119
93 343 318 414 416 10 14 24 32 31 39 23 25 155 230 199 312 101 184 215 485
240 633 3 14 7 32 9 40 3 8 7 33 10 55 4 22 8 47 10 55 2 8 7 35 10 60 4 25 8
46 9 47 2 3 52 11 101 17 47 6 110 15 145 22 14 2 41 7 60 10 19 3 62 12 95
19 33 8 71 16 85 19 44 9 174 46 215 62 22 9 48 18 59 20 25 5 45 22 63 58 22
40 23 64 8 102 -32 79 -88 96 -201 59 -69 -22 -169 -51 -214 -60 -8 -2 -35 -8
-60 -14 -74 -16 -100 -21 -217 -38 -62 -9 -115 -15 -117 -12 -2 2 -6 65 -10
139 -5 129 -11 200 -22 265 -3 17 -7 46 -10 65 -19 125 -102 406 -161 544 -65
151 -214 418 -260 464 -7 7 -13 16 -13 20 0 4 -10 19 -23 34 -12 15 -33 41
-45 57 -68 88 -264 292 -347 361 -70 59 -161 127 -177 133 -10 3 -18 11 -18
17 0 5 -5 10 -11 10 -6 0 -25 11 -43 25 -18 14 -38 25 -44 25 -7 0 -12 5 -12
10 0 6 -4 10 -8 10 -4 0 -53 25 -107 55 -222 123 -562 241 -772 269 -22 3 -52
7 -65 10 -61 14 -140 19 -345 21 -122 2 -223 2 -225 0z m472 -259 c14 -3 45
-8 70 -11 104 -11 421 -93 445 -116 5 -5 17 -9 27 -9 10 0 26 -4 36 -9 9 -5
69 -34 132 -65 186 -89 307 -165 453 -285 168 -137 349 -337 443 -486 10 -16
21 -32 24 -35 3 -3 24 -36 47 -75 139 -239 237 -507 279 -764 3 -18 8 -43 10
-55 10 -52 18 -161 18 -271 l1 -120 -40 -6 c-45 -8 -795 -4 -865 4 -25 3 -85
8 -135 12 -49 3 -103 8 -120 10 -16 3 -57 7 -90 10 -33 2 -71 7 -85 9 -14 3
-52 7 -85 10 -71 7 -116 13 -169 22 -21 3 -53 8 -70 10 -17 2 -40 5 -51 7 -11
3 -42 8 -70 11 -27 4 -57 9 -65 11 -8 2 -31 7 -50 10 -19 3 -57 10 -85 15 -57
11 -255 51 -270 55 -5 1 -28 5 -50 9 -22 4 -60 11 -85 16 -58 12 -97 19 -137
25 -18 3 -52 9 -75 14 -24 5 -63 12 -88 16 -25 3 -58 9 -75 11 -16 3 -43 7
-60 10 -16 2 -48 6 -70 10 -22 4 -51 8 -65 9 -14 2 -38 5 -55 8 -16 3 -57 8
-90 12 -32 4 -67 8 -77 10 -9 2 -48 6 -85 9 -37 3 -84 8 -103 10 -19 3 -71 7
-115 11 -44 3 -102 8 -130 10 -189 16 -694 24 -812 13 -41 -4 -43 -3 -43 21 0
14 9 67 20 116 16 75 29 122 74 270 2 6 7 19 11 30 4 11 21 54 37 95 34 86
128 273 140 278 4 2 8 10 8 18 0 8 5 14 10 14 6 0 10 5 10 11 0 10 77 129 90
139 4 3 17 21 31 41 62 92 241 278 367 382 212 173 516 337 748 402 32 9 77
23 100 30 42 14 167 39 250 51 27 4 72 10 99 14 58 8 448 5 485 -4z m-1805
-2161 c77 -3 158 -8 180 -10 22 -2 72 -7 110 -10 39 -3 88 -7 110 -10 75 -8
160 -17 185 -20 14 -2 50 -6 80 -9 30 -3 66 -8 80 -11 23 -5 41 -7 145 -20 22
-3 51 -7 65 -10 32 -7 85 -16 119 -20 14 -2 26 -4 26 -5 0 -1 16 -3 35 -5 19
-3 46 -7 60 -10 14 -3 38 -8 55 -11 16 -3 109 -21 205 -40 96 -19 190 -37 209
-40 19 -2 37 -6 40 -8 4 -3 25 -7 47 -10 22 -4 51 -9 64 -11 14 -3 39 -7 55
-10 17 -3 41 -7 55 -10 62 -12 311 -48 415 -60 28 -3 64 -8 80 -10 44 -6 120
-13 200 -20 39 -3 90 -8 115 -11 25 -3 92 -7 150 -10 58 -3 134 -7 170 -9 88
-5 536 -5 632 0 43 2 79 1 81 -3 3 -4 -4 -45 -14 -92 -11 -47 -21 -96 -24
-110 -7 -39 -11 -52 -25 -100 -17 -57 -16 -52 -23 -70 -3 -8 -13 -37 -22 -65
-18 -53 -39 -102 -62 -147 -8 -16 -12 -28 -9 -28 2 0 -18 -41 -45 -91 -27 -49
-49 -94 -49 -100 0 -5 -4 -9 -10 -9 -5 0 -10 -5 -10 -11 0 -13 -65 -110 -144
-214 -310 -411 -776 -711 -1289 -830 -38 -9 -87 -18 -110 -21 -23 -3 -48 -7
-56 -10 -90 -30 -558 -23 -726 11 -22 4 -107 22 -143 29 -13 3 -37 10 -55 16
-18 5 -66 21 -107 34 -102 33 -216 79 -303 122 -83 42 -240 135 -245 147 -2 4
-8 7 -13 7 -10 0 -152 106 -208 155 -177 155 -298 300 -471 565 -60 93 -206
430 -224 520 -3 14 -11 50 -19 80 -9 30 -18 69 -21 85 -2 17 -7 41 -10 54 -3
13 -8 49 -12 80 -3 31 -8 59 -10 63 -3 4 -7 78 -10 166 -6 185 -20 167 131
171 55 1 101 4 102 5 4 4 321 -2 468 -9z"/>
</g>
</svg>
